# xmcd
#
# Track frame offsets:
#	150
#	15262
#	31410
#	48402
#	67020
#	85610
#	104745
#	120312
#	142540
#	160405
#
# Disc length: 2291 seconds
#
# Revision: 17
# Processed by: cddbd v1.5.2PL0 Copyright (c) Steve Scherf et al.
# Submitted via: Jack! The Knife 20 Magnifico
#
DISCID=7408f10a
DTITLE=Grave Digger - War Games
DYEAR=1986
DGENRE=Metal
TTITLE0=Keep On Rocking
TTITLE1=Heaven Can Wait
TTITLE2=Fire In Your Eyes
TTITLE3=Let Your Heads Roll
TTITLE4=Love Is Breaking My Heart
TTITLE5=Paradise
TTITLE6=(Enola Gay) Drop The Bomb
TTITLE7=Fallout
TTITLE8=Playin' Fools
TTITLE9=The End
EXTD=Grave Digger and Jan Nemec
EXTT0=Boltendahl, Masson, Frank, Eckardt
EXTT1=Boltendahl, Masson, Frank, Eckardt
EXTT2=Boltendahl, Masson, Frank, Eckardt
EXTT3=Boltendahl, Masson, Frank, Eckardt
EXTT4=Boltendahl, Masson, Frank, Eckardt
EXTT5=Boltendahl, Masson, Frank, Eckardt
EXTT6=Boltendahl, Masson, Frank, Eckardt
EXTT7=Boltendahl, Masson, Frank, Eckardt
EXTT8=Boltendahl, Masson, Frank, Eckardt
EXTT9=Boltendahl, Masson, Frank, Eckardt
PLAYORDER=
